<svg width="168" height="48" viewBox="0 0 168 48" fill="none" xmlns="http://www.w3.org/2000/svg">
<path d="M19.7739 27.1824H29.392C28.5154 30.4004 25.5542 32.4116 21.5032 32.4116C16.1967 32.4116 12.3352 28.6258 12.3352 23.4202C12.3352 18.2147 16.1256 14.4288 21.3611 14.4288C24.4645 14.4288 27.3309 16.0614 28.6339 18.5696L29.2735 19.7763L33.0876 17.5048L32.448 16.4164C30.2448 12.5832 26.0043 10.1934 21.3611 10.1934C13.7566 10.1934 8 15.8722 8 23.4439C8 31.0156 13.804 36.6944 21.5032 36.6944C28.7523 36.6944 34.0115 31.8438 34.0115 25.1239V22.947H19.7976V27.1824H19.7739Z" fill="#050F43"/>
<path d="M41.4046 18.1196V17.1731H37.1641V36.3154H41.4046V25.8096C41.4046 21.5505 44.3658 21.101 45.645 21.101H46.9243V16.9365H45.645C43.9867 16.9365 42.5654 17.3388 41.4046 18.1196Z" fill="#050F43"/>
<path d="M62.9605 18.7588C61.3496 17.5048 59.3123 16.7949 57.1091 16.7949C51.5657 16.7949 47.2305 21.1487 47.2305 26.7328C47.2305 32.317 51.5657 36.6707 57.1091 36.6707C59.2886 36.6707 61.3259 35.9608 62.9605 34.7068V36.2921H67.2247V17.1735H62.9605V18.7588ZM57.2513 32.5062C54.0295 32.5062 51.5183 29.9745 51.5183 26.7328C51.5183 23.4912 54.0295 20.9594 57.2513 20.9594C60.4494 20.9594 62.9605 23.4912 62.9605 26.7328C62.9605 29.9745 60.4731 32.5062 57.2513 32.5062Z" fill="#050F43"/>
<path d="M80.3251 16.8184C78.5247 16.8184 76.9612 17.2679 75.6819 18.1671V17.1733H71.4414V36.3155H75.6819V26.283C75.6819 22.9231 77.3165 20.9828 80.2067 20.9828C83.3337 20.9828 83.7838 23.3253 83.7838 24.7213V36.3155H88.048V24.7213C88.048 19.989 84.9446 16.8184 80.3251 16.8184Z" fill="#050F43"/>
<path d="M97.928 12.1104L93.6639 13.3644V17.1739H90.0156V21.3857H93.6639V30.874C93.6639 32.8379 94.2324 34.3286 95.3458 35.2751C96.3171 36.1033 97.6438 36.5292 99.3968 36.5292C100.108 36.5292 100.913 36.4582 101.766 36.3399L102.856 36.1742V32.1281L101.458 32.2464C100.463 32.3411 98.5914 32.5067 98.1886 32.1281C98.1176 32.0571 97.928 31.7732 97.928 30.8504V21.3857H102.879V17.1739H97.928V12.1104Z" fill="#050F43"/>
<path d="M133.915 28.1521C136.355 34.4934 143.296 37.9953 149.858 36.1971C153.98 35.085 157.108 32.1746 158.647 28.578C159.074 27.5606 159.405 26.4958 159.571 25.3837C159.903 23.3251 159.737 21.1483 159.026 19.0424C156.752 12.3934 149.598 8.60758 142.823 10.4769C135.218 12.5827 131.072 20.7697 133.915 28.1521ZM134.934 23.2778C134.91 22.4023 136.071 21.5978 137.99 20.959C138.772 18.2379 140.856 15.9664 143.746 15.0435C148.319 13.6002 153.199 16.132 154.644 20.675C156.563 21.2429 157.771 22.0237 157.771 22.8992C157.795 23.751 156.681 24.5555 154.857 25.1707C154.762 25.1944 154.691 25.2181 154.596 25.2654C152.725 25.8569 150.143 26.2828 147.276 26.3775C146.566 26.3775 146.423 26.8744 146.423 27.1583C146.447 27.9865 149.314 28.649 153.151 28.7673C152.109 30.0687 150.688 31.1098 148.958 31.654C144.362 33.0974 139.482 30.5419 138.037 25.9752C137.99 25.8096 137.942 25.6203 137.895 25.4547C136.071 24.8868 134.958 24.1296 134.934 23.2778Z" fill="#E53D47"/>
<path d="M116.716 27.1824H126.334C125.457 30.4004 122.496 32.4353 118.445 32.4353C113.138 32.4353 109.277 28.6494 109.277 23.4439C109.277 18.2383 113.067 14.4525 118.303 14.4525C121.406 14.4525 124.273 16.0851 125.576 18.5932L126.215 19.8L130.029 17.5285L129.39 16.44C127.163 12.5832 122.922 10.1934 118.279 10.1934C110.651 10.1934 104.918 15.8958 104.918 23.4439C104.918 30.9919 110.722 36.6944 118.421 36.6944C125.67 36.6944 130.929 31.8438 130.929 25.1239V22.947H116.716V27.1824Z" fill="#E53D47"/>
</svg>
